# 3ds Max Wavefront OBJ Exporter v0.97b - (c)2007 guruware
# File Created: 09.09.2015 22:35:14

mtllib 3d-model.mtl

#
# object Layer0_001
#

v  -14.3201 0.0000 8.2677
v  -16.1366 0.0000 0.4058
v  -14.3201 0.0000 -8.2677
v  -7.7169 0.0000 14.1776
v  -8.4197 0.0000 -13.7718
v  0.0000 0.0000 -16.5354
v  0.0000 0.0000 16.5354
v  7.7169 0.0000 -14.1776
v  8.4197 0.0000 13.7718
v  14.3201 0.0000 -8.2677
v  14.3201 0.0000 8.2677
v  16.1366 0.0000 -0.4058
v  14.3201 25.1631 8.2677
v  16.1366 5.4427 -0.4058
v  0.0000 47.8639 -16.5354
v  7.7169 47.8639 -14.1776
v  -8.4197 47.8639 -13.7718
v  -7.7169 47.8639 14.1776
v  -14.3201 47.8639 8.2677
v  -14.3201 47.8639 -8.2677
v  -16.1366 47.8639 0.4058
v  8.4197 47.8639 13.7718
v  14.3201 47.8639 8.2677
v  0.0000 47.8639 16.5354
v  16.1366 38.4996 -0.4058
v  16.1366 47.8639 -0.4058
v  14.3201 25.1631 -8.2677
v  14.3201 47.8639 -8.2677
v  -14.3201 49.4387 -8.2677
v  -16.1366 49.4387 0.4058
v  -14.3201 49.4387 8.2677
v  -7.7169 49.4387 14.1776
v  -8.4197 49.4387 -13.7718
v  0.0000 49.4387 -16.5354
v  0.0000 49.4387 16.5354
v  8.4197 49.4387 13.7718
v  7.7169 49.4387 -14.1776
v  14.3201 49.4387 -8.2677
v  14.3201 49.4387 8.2677
v  16.1366 49.4387 -0.4058
# 40 vertices

vn 0.0000 -1.0000 -0.0000
vn 0.9788 0.0000 0.2050
vn 0.2922 0.0000 -0.9564
vn -0.3119 0.0000 -0.9501
vn -0.6669 0.0000 0.7451
vn -0.6821 0.0000 -0.7312
vn -0.9743 0.0000 0.2251
vn -0.9788 0.0000 -0.2050
vn 0.6821 0.0000 0.7312
vn 0.3119 0.0000 0.9501
vn -0.2922 0.0000 0.9564
vn 0.9743 0.0000 -0.2251
vn 0.9909 -0.1350 -0.0000
vn 0.9958 0.0917 -0.0000
vn 0.6669 0.0000 -0.7451
vn 0.0000 1.0000 -0.0000
# 16 vertex normals

vt -1.0828 -0.7502 0.0000
vt -1.0299 -0.5152 0.0000
vt -1.0828 -0.2559 0.0000
vt -1.2752 -0.9269 0.0000
vt -1.2548 -0.0913 0.0000
vt -1.5001 -0.0087 0.0000
vt -1.5001 -0.9974 0.0000
vt -1.7249 -0.0792 0.0000
vt -1.7454 -0.9148 0.0000
vt -1.9173 -0.2559 0.0000
vt -1.9173 -0.7502 0.0000
vt -1.9702 -0.4909 0.0000
vt 0.1550 0.5209 0.0000
vt 0.1550 -0.0000 0.0000
vt 0.3251 -0.0000 0.0000
vt 0.3251 0.1127 0.0000
vt 0.6503 -0.0000 0.0000
vt 0.8052 -0.0000 0.0000
vt 0.8052 0.9908 0.0000
vt 0.6503 0.9908 0.0000
vt 0.9754 -0.0000 0.0000
vt 0.9754 0.9908 0.0000
vt 1.4555 -0.0000 0.0000
vt 1.6257 -0.0000 0.0000
vt 1.6257 0.9908 0.0000
vt 1.4555 0.9908 0.0000
vt 1.1303 -0.0000 0.0000
vt 1.1303 0.9908 0.0000
vt 1.3005 0.9908 0.0000
vt 1.3005 -0.0000 0.0000
vt 0.0000 0.0000 0.0000
vt 0.0000 0.9908 0.0000
vt 0.1550 0.9908 0.0000
vt -0.1702 0.0000 0.0000
vt -0.1702 0.9908 0.0000
vt 1.7806 -0.0000 0.0000
vt 1.7806 0.9908 0.0000
vt 0.3251 0.7969 0.0000
vt 0.3251 0.9908 0.0000
vt 0.4801 0.5209 0.0000
vt 0.4801 0.9908 0.0000
vt 0.4725 0.5161 0.0000
vt 0.3162 0.1085 0.0000
vt 0.4801 -0.0000 0.0000
vt 0.0795 0.7522 0.0000
vt 0.0272 0.4971 0.0000
vt 0.0795 0.2659 0.0000
vt 0.2695 0.0921 0.0000
vt 0.2493 0.9141 0.0000
vt 0.4916 0.9954 0.0000
vt 0.4916 0.0228 0.0000
vt 0.7338 0.1040 0.0000
vt 0.7136 0.9260 0.0000
vt 0.9036 0.7522 0.0000
vt 0.9036 0.2659 0.0000
vt 0.9559 0.5210 0.0000
vt 0.1103 1.3812 0.0000
vt 0.3425 1.3812 0.0000
vt 0.3425 1.4275 0.0000
vt 0.1103 1.4275 0.0000
vt -1.0533 1.4275 0.0000
vt -1.0533 1.3812 0.0000
vt -0.7983 1.3812 0.0000
vt -0.7983 1.4275 0.0000
vt -2.0334 1.4275 0.0000
vt -2.0334 1.3812 0.0000
vt -1.8012 1.3812 0.0000
vt -1.8012 1.4275 0.0000
vt -3.4986 1.3812 0.0000
vt -3.2436 1.3812 0.0000
vt -3.2436 1.4275 0.0000
vt -3.4986 1.4275 0.0000
vt -4.1470 1.3812 0.0000
vt -3.9148 1.3812 0.0000
vt -3.9148 1.4275 0.0000
vt -4.1470 1.4275 0.0000
vt -4.5038 1.3812 0.0000
vt -4.2488 1.3812 0.0000
vt -4.2488 1.4275 0.0000
vt -4.5038 1.4275 0.0000
vt -4.1168 1.3812 0.0000
vt -3.8846 1.3812 0.0000
vt -3.8846 1.4275 0.0000
vt -4.1168 1.4275 0.0000
vt -2.8086 1.3812 0.0000
vt -2.8086 1.4275 0.0000
vt -3.0636 1.4275 0.0000
vt -3.0636 1.3812 0.0000
vt -1.7409 1.3812 0.0000
vt -1.7409 1.4275 0.0000
vt -1.9731 1.4275 0.0000
vt -1.9731 1.3812 0.0000
vt -0.6184 1.3812 0.0000
vt -0.3634 1.3812 0.0000
vt -0.3634 1.4275 0.0000
vt -0.6184 1.4275 0.0000
vt 0.1405 1.3812 0.0000
vt 0.3727 1.3812 0.0000
vt 0.3727 1.4275 0.0000
vt 0.1405 1.4275 0.0000
vt 0.3868 1.3812 0.0000
vt 0.6418 1.3812 0.0000
vt 0.6418 1.4275 0.0000
vt 0.3868 1.4275 0.0000
# 104 texture coords

g Layer0_001
usemtl wire_087224198
s off
f 1/1/1 2/2/1 3/3/1 4/4/1 
f 4/4/1 3/3/1 5/5/1 6/6/1 
f 7/7/1 4/4/1 6/6/1 8/8/1 
f 9/9/1 7/7/1 8/8/1 10/10/1 
f 11/11/1 9/9/1 10/10/1 12/12/1 
f 13/13/2 11/14/2 12/15/2 14/16/2 
f 8/17/3 6/18/3 15/19/3 16/20/3 
f 6/18/4 5/21/4 17/22/4 15/19/4 
f 1/23/5 4/24/5 18/25/5 19/26/5 
f 5/21/6 3/27/6 20/28/6 17/22/6 
f 1/23/7 19/26/7 21/29/7 2/30/7 
f 2/30/8 21/29/8 20/28/8 3/27/8 
f 9/31/9 11/14/9 13/13/9 22/32/9 
f 22/32/9 13/13/9 23/33/9 
f 7/34/10 9/31/10 22/32/10 24/35/10 
f 4/24/11 7/36/11 24/37/11 18/25/11 
f 23/33/2 13/13/2 25/38/2 26/39/2 
f 26/39/12 25/38/12 27/40/12 28/41/12 
f 27/42/13 25/38/13 13/13/13 
f 27/42/14 13/13/14 14/43/14 
f 14/16/12 12/15/12 10/44/12 27/40/12 
f 10/44/15 8/17/15 16/20/15 27/40/15 
f 27/40/15 16/20/15 28/41/15 
f 29/45/16 30/46/16 31/47/16 32/48/16 
f 33/49/16 29/45/16 32/48/16 34/50/16 
f 34/50/16 32/48/16 35/51/16 36/52/16 
f 37/53/16 34/50/16 36/52/16 38/54/16 
f 38/54/16 36/52/16 39/55/16 40/56/16 
f 22/57/9 23/58/9 39/59/9 36/60/9 
f 39/61/2 23/62/2 26/63/2 40/64/2 
f 40/65/12 26/66/12 28/67/12 38/68/12 
f 28/69/15 16/70/15 37/71/15 38/72/15 
f 16/73/3 15/74/3 34/75/3 37/76/3 
f 15/77/4 17/78/4 33/79/4 34/80/4 
f 17/81/6 20/82/6 29/83/6 33/84/6 
f 21/85/8 30/86/8 29/87/8 20/88/8 
f 19/89/7 31/90/7 30/91/7 21/92/7 
f 19/93/5 18/94/5 32/95/5 31/96/5 
f 18/97/11 24/98/11 35/99/11 32/100/11 
f 24/101/10 22/102/10 36/103/10 35/104/10 
# 36 polygons - 4 triangles

